<?xml version="1.0" standalone="no"?>
<!DOCTYPE svg PUBLIC "-//W3C//DTD SVG 20010904//EN"
 "http://www.w3.org/TR/2001/REC-SVG-20010904/DTD/svg10.dtd">
<svg version="1.0" xmlns="http://www.w3.org/2000/svg"
 width="163.000000pt" height="57.000000pt" viewBox="0 0 163.000000 57.000000"
 preserveAspectRatio="xMidYMid meet">

<g transform="translate(0.000000,57.000000) scale(0.100000,-0.100000)"
fill="#000000" stroke="none">
<path d="M993 428 c4 -13 0 -29 -9 -39 -15 -16 -14 -17 4 -12 25 6 35 -11 57
-102 25 -105 25 -105 45 -105 24 0 36 18 17 26 -8 3 -20 31 -27 62 -7 31 -16
70 -21 87 -8 24 -6 32 8 42 15 12 15 13 -5 13 -14 0 -27 9 -34 25 -14 32 -43
34 -35 3z"/>
<path d="M165 400 c-37 -39 -30 -52 49 -93 62 -32 136 -95 136 -116 0 -8 -16
-11 -52 -9 -55 3 -67 23 -14 23 16 0 31 6 33 13 6 16 -40 16 -70 1 -32 -18
-38 -31 -20 -51 12 -14 27 -17 60 -14 81 8 108 63 54 108 -22 19 -27 30 -24
55 4 25 -2 38 -35 72 -48 50 -77 53 -117 11z m65 -5 c34 -17 60 -52 60 -78 0
-16 -7 -15 -60 14 -56 29 -73 53 -53 72 10 10 21 9 53 -8z"/>
<path d="M1502 378 c-11 -18 -30 -58 -42 -88 -12 -30 -25 -58 -28 -62 -4 -4
-36 20 -71 52 -58 54 -90 69 -77 35 4 -10 -3 -12 -29 -8 -40 6 -93 -15 -101
-40 -3 -10 2 -29 10 -42 25 -37 67 -33 116 11 l40 36 40 -32 c22 -18 45 -41
51 -51 13 -25 26 -17 35 24 3 17 24 69 45 115 40 87 43 103 11 50z m-224 -112
c12 -12 11 -16 -11 -31 -14 -9 -34 -15 -44 -13 -19 4 -45 47 -36 61 8 13 74 1
91 -17z"/>
<path d="M430 343 c0 -10 9 -31 20 -48 11 -16 22 -49 26 -73 7 -44 26 -53 32
-15 2 16 12 22 43 25 37 3 39 2 39 -24 0 -30 14 -38 24 -12 13 33 5 69 -25
116 -17 26 -35 48 -39 48 -20 0 -18 -19 5 -53 30 -43 31 -57 8 -57 -10 0 -28
-3 -40 -6 -18 -5 -23 -2 -23 11 0 23 -48 105 -60 105 -6 0 -10 -8 -10 -17z"/>
<path d="M914 321 c-40 -10 -54 -19 -54 -36 0 -19 32 -85 41 -85 17 0 19 21 4
49 -22 43 -19 49 20 57 19 3 38 10 41 15 6 10 -8 10 -52 0z"/>
<path d="M657 304 c-15 -15 -7 -82 13 -105 18 -22 21 -22 32 -8 19 24 57 41
76 34 10 -3 23 -17 29 -33 9 -24 11 -25 18 -8 5 11 1 40 -9 72 -17 55 -36 64
-36 19 0 -18 -10 -30 -39 -45 -46 -23 -56 -16 -68 44 -5 21 -12 34 -16 30z"/>
</g>
</svg>
